<svg xmlns="http://www.w3.org/2000/svg" viewBox="0 0 252 252" width="252" height="252"><path d="M57.15 164.86a32.81 32.81 0 0 0-7.61.85.53.53 0 0 1 0 .12.37.37 0 0 0 0 .13c0 .28.26.59.77.95a13.57 13.57 0 0 0 2 1c.79.33 1.68.66 2.63 1s1.89.59 2.78.84 1.68.44 2.38.59a10.54 10.54 0 0 0 1.45.21c.59 0 1.31 0 2.14-.1a13.34 13.34 0 0 0 2.49-.41 11.92 11.92 0 0 0 2.35-.85 4.37 4.37 0 0 0 1.68-1.45 27.74 27.74 0 0 0-6.33-2.18 30.9 30.9 0 0 0-6.73-.7z"/><path d="M125.5.17a126 126 0 1 0 126 126 126 126 0 0 0-126-126zm82.17 69.52V70a6.71 6.71 0 0 1-.1 1.38c-.13.66-.19 1.37-.32 2.09s-.22 1.41-.35 2.07-.18 1.08-.23 1.33a10.18 10.18 0 0 0-.9 1.81c-.23.64-.44 1.28-.63 1.95s-.38 1.32-.58 2a14.94 14.94 0 0 1-.72 1.93 30.33 30.33 0 0 1-1.66 3 21.53 21.53 0 0 0-1.58 3l-19.78 27.48a3.14 3.14 0 0 1-.23.54 1.45 1.45 0 0 1-.27.28c-.08.09-.19.17-.31.28a3.77 3.77 0 0 0-.41.5l-1.6 2.26c-.64.89-1.33 1.84-2 2.86s-1.45 2.1-2.17 3.2-1.38 2.19-2 3.24a25.92 25.92 0 0 0-1.38 2.94 6.94 6.94 0 0 0-.52 2.3c0 .3-.22.53-.21.73s.19.42.19.69c-.16 0-.26.14-.26.37s.1.38.26.41v10.08a2.64 2.64 0 0 1-.24 1c-.16.36-.2.74-.36 1.15s-.49.81-.6 1.2-.44.79-.44 1.12v1.64a.41.41 0 0 1 0 .43c-.15.23-.21.49-.39.77s-.55.56-.71.81-.51.38-.51.41v.39c0 .09.69.22.78.42s.86.32.86.41v2.77a23.27 23.27 0 0 1-.61 3.48c-.18 1.17-.55 2.32-.76 3.47s-.48 2.32-.67 3.48a22.64 22.64 0 0 0-.32 3.49 61.91 61.91 0 0 0 .29 6.24 42.27 42.27 0 0 0 1.08 6.1 30.93 30.93 0 0 0 2.11 5.7 23.17 23.17 0 0 0 3.38 5.18 5.41 5.41 0 0 1-1.25.82 9.92 9.92 0 0 1-1.66.67 12.41 12.41 0 0 1-1.71.46 5.24 5.24 0 0 1-1.43.09l-.46-.1-1-.25-1.18-.26-1-.22c-.23 0-.47-.08-.74-.14a5.1 5.1 0 0 1-.74-.28 3.59 3.59 0 0 1-.61-.48 1.37 1.37 0 0 1-.32-.71 29.63 29.63 0 0 0 .11-4c-.05-1.4-.15-2.81-.28-4.23s-.33-2.82-.51-4.24-.38-2.74-.52-4a2.6 2.6 0 0 1-.2-.62 1.52 1.52 0 0 0-.25-.6c.07-1.1.1-2.3.13-3.61a38.17 38.17 0 0 0-.13-4 25.58 25.58 0 0 0-.59-3.95 11.14 11.14 0 0 0-1.4-3.38 3.33 3.33 0 0 0-1.44 1.79 20.42 20.42 0 0 0-.77 2.69c-.22 1-.2 1.91-.43 2.86s-.92 1.73-.92 2.32v7.49c0 2.81-.22 5.56-.1 8.22s.2 5.37.56 8.13a1.8 1.8 0 0 0 .41.33c.26.18.51.38.8.6a5.28 5.28 0 0 1 .79.69.91.91 0 0 1 .34.62c0 .23-.27.49-.81.79a14.33 14.33 0 0 1-1.83.85 21.17 21.17 0 0 1-2 .82 10.83 10.83 0 0 1-1.27.42h-.18l-4.71-2.57a.45.45 0 0 1-.22-.47v-.6a20.7 20.7 0 0 1 0-3 21.71 21.71 0 0 0 .11-3 26.26 26.26 0 0 0-.31-3.77c-.16-1.23-.38-2.46-.58-3.68s-.41-2.46-.59-3.71a30.28 30.28 0 0 1-.25-3.86c0-1.22 0-2.32.11-3.29s.2-1.89.35-2.78.34-1.82.52-2.77.41-2 .66-3.18a1.36 1.36 0 0 0-.05-.7 4.44 4.44 0 0 1-.11-.71 8.35 8.35 0 0 0-1.86.21c-.61.15-1.22.32-1.84.51l-1.91.61a14.29 14.29 0 0 1-1.89.51c-.51.07-1 .13-1.35.2s-.72.1-1.06.13-.66-.12-1-.11-.68-.17-1.06-.17h-1.8c-1.79 0-3.54.11-5.21 0s-3.4-.15-5.21-.15c-.77 0-1.58.06-2.42.09a4 4 0 0 0-2.33.85v5.16s-.09 3.37-.16 5-.2 3.37-.26 5.06-.15 3.41-.15 5.15v5.04c0 .55.66 1.1 1.12 1.66s.94 1.12 1.39 1.7a15.69 15.69 0 0 1 1.18 1.74 3.33 3.33 0 0 1 .52 1.77v.38a9 9 0 0 1-4 .39c.08.48 0 .73-.23.79a3.39 3.39 0 0 1-.7.07h-2a9.56 9.56 0 0 1-2.24-.23 4.28 4.28 0 0 1-1.8-.84 2.17 2.17 0 0 1-.76-1.84 7.22 7.22 0 0 1 .13-1.28c.1-.43.2-.85.31-1.28s.23-.85.32-1.3a6.88 6.88 0 0 0 .13-1.38 24.73 24.73 0 0 0-.27-3.8c-.18-1.21-.41-2.39-.67-3.56s-.53-2.62-.8-3.79a26.14 26.14 0 0 1-.71-3.94h-.43c-.21 0-.38.75-.51.92s-.26.48-.39.67-.23.42-.31.53c-.5.74-1 1.53-1.55 2.26s-1 1.49-1.45 2.25a16.52 16.52 0 0 0-1.06 2.4 8.39 8.39 0 0 0-.43 2.67 4.14 4.14 0 0 0 .33 1.61 14 14 0 0 0 .72 1.5c.26.44.51.84.72 1.15a1.61 1.61 0 0 1 .33.58.85.85 0 0 1-.41.72 3 3 0 0 1-1 .46 10.28 10.28 0 0 1-1.32.26c-.46 0-.9.1-1.33.1h-1.28a11 11 0 0 1-1.71-.13 2.12 2.12 0 0 1-1.06-.39 2.09 2.09 0 0 1-.69-.86 9.33 9.33 0 0 1-.55-1.6c-.16-.55-.32-1.07-.51-1.6a5.05 5.05 0 0 1-.27-1.65 3.22 3.22 0 0 1 .41-1.47c.28-.51.59-1.06.93-1.58l1-1.56a6.87 6.87 0 0 0 .81-1.43c.84-1.94 1.64-3.9 2.43-5.85s1.61-3.9 2.45-5.86a4.27 4.27 0 0 1 .46-.73c.18-.23.36-.48.53-.71a3.2 3.2 0 0 0 .42-.74 1.67 1.67 0 0 0 .18-.82c0-.36-.11-.58-.32-.63a3 3 0 0 0-.64-.08 1.89 1.89 0 0 0-.38.05h-.25l-8.91 2.42a2.63 2.63 0 0 1-1.29.52l-1.76.4a7.13 7.13 0 0 0-1.56.57 1.12 1.12 0 0 0-.69 1.06 1.44 1.44 0 0 0 .26.88 2.66 2.66 0 0 0 .64.66l.82.54a2.91 2.91 0 0 1 .74.61l-.39.43-1.22-.76a14.19 14.19 0 0 0-1.4-.82 8.65 8.65 0 0 0-1.49-.61 4.84 4.84 0 0 0-1.5-.23 14.28 14.28 0 0 0-3.76.51c-1.28.33-2.6.71-3.93 1.12s-2.68.8-4.06 1.13a16.82 16.82 0 0 1-4.17.51 21.62 21.62 0 0 1-3.44-.39c-1.48-.25-3.09-.63-4.84-1.1s-3.55-1.07-5.38-1.75a38.06 38.06 0 0 1-5-2.23 15.58 15.58 0 0 1-3.64-2.66 4.17 4.17 0 0 1-1.43-2.95 4.4 4.4 0 0 1 1.11-3.23 6.3 6.3 0 0 1 2.73-1.63 14 14 0 0 1 3.45-.15c1.22 0 2.34.33 3.32.33h3.9a2.63 2.63 0 0 1 1.26-.25c.69.09 1.47 0 2.32.15s1.71.18 2.53.31 1.5.18 2 .27a7.8 7.8 0 0 1 1.92.53l1.77.84c.58.28 1.19.52 1.81.75a5.94 5.94 0 0 0 2 .33 8.71 8.71 0 0 0 3.94-1.05 30.58 30.58 0 0 0 4.1-2.54c1.34-1 2.64-2 3.86-3.09s2.3-2 3.24-2.69a16.38 16.38 0 0 1 1.84-1.23c.62-.35 1.23-.71 1.84-1.09a17 17 0 0 0 1.71-1.25 8.19 8.19 0 0 0 1.48-1.69 36.24 36.24 0 0 0 2.59-4.44 31.16 31.16 0 0 1 2.68-4.42 7 7 0 0 1 1.3-1.3 13.68 13.68 0 0 1 1.53-1c.52-.3 1.07-.59 1.61-.87a17 17 0 0 0 1.61-.91 43.8 43.8 0 0 0 3.56-2.61c1.17-.94 2.31-1.91 3.42-2.89s2.24-2 3.34-3 2.23-1.94 3.42-2.84a20.81 20.81 0 0 1 3.74-2.19c1.32-.59 2.62-1.21 3.9-1.84q1.26-.57 2.46-1.26c.81-.45 1.63-.89 2.45-1.3a23 23 0 0 1 2.55-1.13 11.74 11.74 0 0 1 2.65-.74l22.2-3.24a10.91 10.91 0 0 0 3.47-1.12 19.56 19.56 0 0 0 3.33-2.17 31 31 0 0 0 3.16-2.86c1-1 2-2.13 2.89-3.22s1.81-2.15 2.65-3.19 1.59-2 2.3-2.77l7.69-8.84a2.23 2.23 0 0 0 .33-.27 6.75 6.75 0 0 0 .52-.54c.2-.18.36-.36.51-.52s.25-.25.28-.27l2-3.23a1.64 1.64 0 0 1 .25-.17l.38-.23.38-.23a.81.81 0 0 0 .21-.2 2.45 2.45 0 0 0 .41-.39l.36-.39c.38-.5.79-1.06 1.23-1.7s.92-1.28 1.37-1.95.89-1.32 1.3-1.94a18.92 18.92 0 0 0 1-1.71 12.24 12.24 0 0 0 .85-2q.34-1 .69-2.1c.22-.72.5-1.45.76-2.17s1-1.46 1-2.18v-6.07a5.12 5.12 0 0 0-1.08-3.06 11.71 11.71 0 0 0-2.61-2.6 13.39 13.39 0 0 0-3.33-1.79 9.3 9.3 0 0 0-3.18-.67 24.77 24.77 0 0 0-5.77.67 12.13 12.13 0 0 0-5.08 2.62 12.45 12.45 0 0 0-1.43 1.41c-.51.59-1 1.22-1.59 1.86l-1.74 2a19.74 19.74 0 0 1-1.86 1.82 10.58 10.58 0 0 1-1.81 1.3 3.5 3.5 0 0 1-1.75.51 1.59 1.59 0 0 1-1.16-.48 1.54 1.54 0 0 1-.5-1.12v-.42a4.4 4.4 0 0 1 .11-.48c0-.23.11-.49.16-.76s.11-.52.14-.77a2.52 2.52 0 0 0 .07-.46 5.28 5.28 0 0 0-.24-1.66 13 13 0 0 0-.59-1.35c-.23-.41-.41-.8-.59-1.18a3 3 0 0 1-.25-1.23 1.08 1.08 0 0 0 .84-.27 2.52 2.52 0 0 0 .44-.62l.43-.74a1.7 1.7 0 0 1 .79-.59 1.35 1.35 0 0 1 .54-.05c.23 0 .53-.12.86-.12s.64-.09.9-.09h.51a1.09 1.09 0 0 0 .94-.37 3.7 3.7 0 0 1 .7-.65.44.44 0 0 1 .23 0h.15a.83.83 0 0 1 .25.37 1.66 1.66 0 0 0 .18.41.45.45 0 0 1 .39-.38c.1-.06.32-.17.63-.36l1.1-.64 1.35-.8 1.33-.79 1.08-.64a2.72 2.72 0 0 0 .56-.4 18.36 18.36 0 0 1 2.09-1.17 7.16 7.16 0 0 1 1.76-.63 9.36 9.36 0 0 1 1.9-.21h6.4a5.78 5.78 0 0 0 1.46.52c.51.13 1 .23 1.51.32s1 .19 1.55.31a10 10 0 0 1 1.52.49 14.9 14.9 0 0 1 4.52 3 16.73 16.73 0 0 1 3.17 4.2 18.74 18.74 0 0 1 1.71 5 23.9 23.9 0 0 1 .48 5.41v2.28z"/></svg>