<svg xmlns="http://www.w3.org/2000/svg"><symbol id="brachiosaurus" viewBox="0 0 252 252"><path d="M57.15 164.86a32.81 32.81 0 0 0-7.61.85.53.53 0 0 1 0 .12.37.37 0 0 0 0 .13c0 .28.26.59.77.95a13.57 13.57 0 0 0 2 1c.79.33 1.68.66 2.63 1s1.89.59 2.78.84 1.68.44 2.38.59a10.54 10.54 0 0 0 1.45.21c.59 0 1.31 0 2.14-.1a13.34 13.34 0 0 0 2.49-.41 11.92 11.92 0 0 0 2.35-.85 4.37 4.37 0 0 0 1.68-1.45 27.74 27.74 0 0 0-6.33-2.18 30.9 30.9 0 0 0-6.73-.7z"/><path d="M125.5.17a126 126 0 1 0 126 126 126 126 0 0 0-126-126zm82.17 69.52V70a6.71 6.71 0 0 1-.1 1.38c-.13.66-.19 1.37-.32 2.09s-.22 1.41-.35 2.07-.18 1.08-.23 1.33a10.18 10.18 0 0 0-.9 1.81c-.23.64-.44 1.28-.63 1.95s-.38 1.32-.58 2a14.94 14.94 0 0 1-.72 1.93 30.33 30.33 0 0 1-1.66 3 21.53 21.53 0 0 0-1.58 3l-19.78 27.48a3.14 3.14 0 0 1-.23.54 1.45 1.45 0 0 1-.27.28c-.08.09-.19.17-.31.28a3.77 3.77 0 0 0-.41.5l-1.6 2.26c-.64.89-1.33 1.84-2 2.86s-1.45 2.1-2.17 3.2-1.38 2.19-2 3.24a25.92 25.92 0 0 0-1.38 2.94 6.94 6.94 0 0 0-.52 2.3c0 .3-.22.53-.21.73s.19.42.19.69c-.16 0-.26.14-.26.37s.1.38.26.41v10.08a2.64 2.64 0 0 1-.24 1c-.16.36-.2.74-.36 1.15s-.49.81-.6 1.2-.44.79-.44 1.12v1.64a.41.41 0 0 1 0 .43c-.15.23-.21.49-.39.77s-.55.56-.71.81-.51.38-.51.41v.39c0 .09.69.22.78.42s.86.32.86.41v2.77a23.27 23.27 0 0 1-.61 3.48c-.18 1.17-.55 2.32-.76 3.47s-.48 2.32-.67 3.48a22.64 22.64 0 0 0-.32 3.49 61.91 61.91 0 0 0 .29 6.24 42.27 42.27 0 0 0 1.08 6.1 30.93 30.93 0 0 0 2.11 5.7 23.17 23.17 0 0 0 3.38 5.18 5.41 5.41 0 0 1-1.25.82 9.92 9.92 0 0 1-1.66.67 12.41 12.41 0 0 1-1.71.46 5.24 5.24 0 0 1-1.43.09l-.46-.1-1-.25-1.18-.26-1-.22c-.23 0-.47-.08-.74-.14a5.1 5.1 0 0 1-.74-.28 3.59 3.59 0 0 1-.61-.48 1.37 1.37 0 0 1-.32-.71 29.63 29.63 0 0 0 .11-4c-.05-1.4-.15-2.81-.28-4.23s-.33-2.82-.51-4.24-.38-2.74-.52-4a2.6 2.6 0 0 1-.2-.62 1.52 1.52 0 0 0-.25-.6c.07-1.1.1-2.3.13-3.61a38.17 38.17 0 0 0-.13-4 25.58 25.58 0 0 0-.59-3.95 11.14 11.14 0 0 0-1.4-3.38 3.33 3.33 0 0 0-1.44 1.79 20.42 20.42 0 0 0-.77 2.69c-.22 1-.2 1.91-.43 2.86s-.92 1.73-.92 2.32v7.49c0 2.81-.22 5.56-.1 8.22s.2 5.37.56 8.13a1.8 1.8 0 0 0 .41.33c.26.18.51.38.8.6a5.28 5.28 0 0 1 .79.69.91.91 0 0 1 .34.62c0 .23-.27.49-.81.79a14.33 14.33 0 0 1-1.83.85 21.17 21.17 0 0 1-2 .82 10.83 10.83 0 0 1-1.27.42h-.18l-4.71-2.57a.45.45 0 0 1-.22-.47v-.6a20.7 20.7 0 0 1 0-3 21.71 21.71 0 0 0 .11-3 26.26 26.26 0 0 0-.31-3.77c-.16-1.23-.38-2.46-.58-3.68s-.41-2.46-.59-3.71a30.28 30.28 0 0 1-.25-3.86c0-1.22 0-2.32.11-3.29s.2-1.89.35-2.78.34-1.82.52-2.77.41-2 .66-3.18a1.36 1.36 0 0 0-.05-.7 4.44 4.44 0 0 1-.11-.71 8.35 8.35 0 0 0-1.86.21c-.61.15-1.22.32-1.84.51l-1.91.61a14.29 14.29 0 0 1-1.89.51c-.51.07-1 .13-1.35.2s-.72.1-1.06.13-.66-.12-1-.11-.68-.17-1.06-.17h-1.8c-1.79 0-3.54.11-5.21 0s-3.4-.15-5.21-.15c-.77 0-1.58.06-2.42.09a4 4 0 0 0-2.33.85v5.16s-.09 3.37-.16 5-.2 3.37-.26 5.06-.15 3.41-.15 5.15v5.04c0 .55.66 1.1 1.12 1.66s.94 1.12 1.39 1.7a15.69 15.69 0 0 1 1.18 1.74 3.33 3.33 0 0 1 .52 1.77v.38a9 9 0 0 1-4 .39c.08.48 0 .73-.23.79a3.39 3.39 0 0 1-.7.07h-2a9.56 9.56 0 0 1-2.24-.23 4.28 4.28 0 0 1-1.8-.84 2.17 2.17 0 0 1-.76-1.84 7.22 7.22 0 0 1 .13-1.28c.1-.43.2-.85.31-1.28s.23-.85.32-1.3a6.88 6.88 0 0 0 .13-1.38 24.73 24.73 0 0 0-.27-3.8c-.18-1.21-.41-2.39-.67-3.56s-.53-2.62-.8-3.79a26.14 26.14 0 0 1-.71-3.94h-.43c-.21 0-.38.75-.51.92s-.26.48-.39.67-.23.42-.31.53c-.5.74-1 1.53-1.55 2.26s-1 1.49-1.45 2.25a16.52 16.52 0 0 0-1.06 2.4 8.39 8.39 0 0 0-.43 2.67 4.14 4.14 0 0 0 .33 1.61 14 14 0 0 0 .72 1.5c.26.44.51.84.72 1.15a1.61 1.61 0 0 1 .33.58.85.85 0 0 1-.41.72 3 3 0 0 1-1 .46 10.28 10.28 0 0 1-1.32.26c-.46 0-.9.1-1.33.1h-1.28a11 11 0 0 1-1.71-.13 2.12 2.12 0 0 1-1.06-.39 2.09 2.09 0 0 1-.69-.86 9.33 9.33 0 0 1-.55-1.6c-.16-.55-.32-1.07-.51-1.6a5.05 5.05 0 0 1-.27-1.65 3.22 3.22 0 0 1 .41-1.47c.28-.51.59-1.06.93-1.58l1-1.56a6.87 6.87 0 0 0 .81-1.43c.84-1.94 1.64-3.9 2.43-5.85s1.61-3.9 2.45-5.86a4.27 4.27 0 0 1 .46-.73c.18-.23.36-.48.53-.71a3.2 3.2 0 0 0 .42-.74 1.67 1.67 0 0 0 .18-.82c0-.36-.11-.58-.32-.63a3 3 0 0 0-.64-.08 1.89 1.89 0 0 0-.38.05h-.25l-8.91 2.42a2.63 2.63 0 0 1-1.29.52l-1.76.4a7.13 7.13 0 0 0-1.56.57 1.12 1.12 0 0 0-.69 1.06 1.44 1.44 0 0 0 .26.88 2.66 2.66 0 0 0 .64.66l.82.54a2.91 2.91 0 0 1 .74.61l-.39.43-1.22-.76a14.19 14.19 0 0 0-1.4-.82 8.65 8.65 0 0 0-1.49-.61 4.84 4.84 0 0 0-1.5-.23 14.28 14.28 0 0 0-3.76.51c-1.28.33-2.6.71-3.93 1.12s-2.68.8-4.06 1.13a16.82 16.82 0 0 1-4.17.51 21.62 21.62 0 0 1-3.44-.39c-1.48-.25-3.09-.63-4.84-1.1s-3.55-1.07-5.38-1.75a38.06 38.06 0 0 1-5-2.23 15.58 15.58 0 0 1-3.64-2.66 4.17 4.17 0 0 1-1.43-2.95 4.4 4.4 0 0 1 1.11-3.23 6.3 6.3 0 0 1 2.73-1.63 14 14 0 0 1 3.45-.15c1.22 0 2.34.33 3.32.33h3.9a2.63 2.63 0 0 1 1.26-.25c.69.09 1.47 0 2.32.15s1.71.18 2.53.31 1.5.18 2 .27a7.8 7.8 0 0 1 1.92.53l1.77.84c.58.28 1.19.52 1.81.75a5.94 5.94 0 0 0 2 .33 8.71 8.71 0 0 0 3.94-1.05 30.58 30.58 0 0 0 4.1-2.54c1.34-1 2.64-2 3.86-3.09s2.3-2 3.24-2.69a16.38 16.38 0 0 1 1.84-1.23c.62-.35 1.23-.71 1.84-1.09a17 17 0 0 0 1.71-1.25 8.19 8.19 0 0 0 1.48-1.69 36.24 36.24 0 0 0 2.59-4.44 31.16 31.16 0 0 1 2.68-4.42 7 7 0 0 1 1.3-1.3 13.68 13.68 0 0 1 1.53-1c.52-.3 1.07-.59 1.61-.87a17 17 0 0 0 1.61-.91 43.8 43.8 0 0 0 3.56-2.61c1.17-.94 2.31-1.91 3.42-2.89s2.24-2 3.34-3 2.23-1.94 3.42-2.84a20.81 20.81 0 0 1 3.74-2.19c1.32-.59 2.62-1.21 3.9-1.84q1.26-.57 2.46-1.26c.81-.45 1.63-.89 2.45-1.3a23 23 0 0 1 2.55-1.13 11.74 11.74 0 0 1 2.65-.74l22.2-3.24a10.91 10.91 0 0 0 3.47-1.12 19.56 19.56 0 0 0 3.33-2.17 31 31 0 0 0 3.16-2.86c1-1 2-2.13 2.89-3.22s1.81-2.15 2.65-3.19 1.59-2 2.3-2.77l7.69-8.84a2.23 2.23 0 0 0 .33-.27 6.75 6.75 0 0 0 .52-.54c.2-.18.36-.36.51-.52s.25-.25.28-.27l2-3.23a1.64 1.64 0 0 1 .25-.17l.38-.23.38-.23a.81.81 0 0 0 .21-.2 2.45 2.45 0 0 0 .41-.39l.36-.39c.38-.5.79-1.06 1.23-1.7s.92-1.28 1.37-1.95.89-1.32 1.3-1.94a18.92 18.92 0 0 0 1-1.71 12.24 12.24 0 0 0 .85-2q.34-1 .69-2.1c.22-.72.5-1.45.76-2.17s1-1.46 1-2.18v-6.07a5.12 5.12 0 0 0-1.08-3.06 11.71 11.71 0 0 0-2.61-2.6 13.39 13.39 0 0 0-3.33-1.79 9.3 9.3 0 0 0-3.18-.67 24.77 24.77 0 0 0-5.77.67 12.13 12.13 0 0 0-5.08 2.62 12.45 12.45 0 0 0-1.43 1.41c-.51.59-1 1.22-1.59 1.86l-1.74 2a19.74 19.74 0 0 1-1.86 1.82 10.58 10.58 0 0 1-1.81 1.3 3.5 3.5 0 0 1-1.75.51 1.59 1.59 0 0 1-1.16-.48 1.54 1.54 0 0 1-.5-1.12v-.42a4.4 4.4 0 0 1 .11-.48c0-.23.11-.49.16-.76s.11-.52.14-.77a2.52 2.52 0 0 0 .07-.46 5.28 5.28 0 0 0-.24-1.66 13 13 0 0 0-.59-1.35c-.23-.41-.41-.8-.59-1.18a3 3 0 0 1-.25-1.23 1.08 1.08 0 0 0 .84-.27 2.52 2.52 0 0 0 .44-.62l.43-.74a1.7 1.7 0 0 1 .79-.59 1.35 1.35 0 0 1 .54-.05c.23 0 .53-.12.86-.12s.64-.09.9-.09h.51a1.09 1.09 0 0 0 .94-.37 3.7 3.7 0 0 1 .7-.65.44.44 0 0 1 .23 0h.15a.83.83 0 0 1 .25.37 1.66 1.66 0 0 0 .18.41.45.45 0 0 1 .39-.38c.1-.06.32-.17.63-.36l1.1-.64 1.35-.8 1.33-.79 1.08-.64a2.72 2.72 0 0 0 .56-.4 18.36 18.36 0 0 1 2.09-1.17 7.16 7.16 0 0 1 1.76-.63 9.36 9.36 0 0 1 1.9-.21h6.4a5.78 5.78 0 0 0 1.46.52c.51.13 1 .23 1.51.32s1 .19 1.55.31a10 10 0 0 1 1.52.49 14.9 14.9 0 0 1 4.52 3 16.73 16.73 0 0 1 3.17 4.2 18.74 18.74 0 0 1 1.71 5 23.9 23.9 0 0 1 .48 5.41v2.28z"/></symbol><symbol id="micropachycephalosaurus" viewBox="0 0 252 252"><path d="M130.32 149c-.28 0-.41.2-.41.59a.11.11 0 0 0-.08 0 .43.43 0 0 0-.48.49c0 .39.16.59.48.59s.41-.2.41-.59 0 0 .08 0c.34 0 .51-.16.51-.49s-.17-.59-.51-.59zm1.44-.75a2.33 2.33 0 0 0-.85.79h.29a2.22 2.22 0 0 0 1.1-.33 2.32 2.32 0 0 0 .84-.77h-.3a2.12 2.12 0 0 0-1.08.31zm3.02-2.54c-.28 0-.41.18-.41.54a.3.3 0 0 0-.13 0c-.28 0-.43.18-.43.56a.22.22 0 0 0-.12 0c-.31 0-.47.2-.47.59s.16.54.47.54.46-.18.46-.54 0 0 .09 0c.31 0 .45-.2.45-.59s.05 0 .09 0c.34 0 .5-.18.5-.56s-.16-.54-.5-.54zm22.96-5.85a14.16 14.16 0 0 1-1.26 1.4 1.81 1.81 0 0 0 .8 1 3 3 0 0 0 1.13.18 2.12 2.12 0 0 0 1.38-.47 4.75 4.75 0 0 0 1.05-1.21 10 10 0 0 0 .75-1.45c.22-.51.38-1.16.49-1.16h-3.37c-.2.04-.51 1.11-.97 1.71z"/><path d="M125.83.5A125.67 125.67 0 1 0 251.5 126.17 125.66 125.66 0 0 0 125.83.5zm94.23 74.55a5.19 5.19 0 0 1-1.54.38 15.25 15.25 0 0 1-1.64.08h-1.08l-.93.07a42.33 42.33 0 0 0-5.15 1.23 16 16 0 0 0-3.61 1.57 9.34 9.34 0 0 0-2.46 2.15 13.73 13.73 0 0 0-1.73 2.9 36 36 0 0 0-1.48 3.85c-.47 1.46-1 3.12-1.64 5-.39 1.18-.79 2.31-1.18 3.4s-.8 2.13-1.24 3.14-.91 2-1.43 3.1-1.1 2.1-1.74 3.2a33 33 0 0 1-2.64 4q-1.4 1.84-2.91 3.62l-3.07 3.53a60.013 60.013 0 0 0-3.08 3.78 10.21 10.21 0 0 0-1.36 2.64c-.3.87-.61 1.72-1 2.53a8.45 8.45 0 0 1-1.33 2.18 5.51 5.51 0 0 1-2.46 1.57 8.17 8.17 0 0 1-1.33.56l-2 .67-2 .62c-.64.2-1.08.33-1.35.38a2.92 2.92 0 0 1 .17 2 2 2 0 0 1-.86.92 13.18 13.18 0 0 1-1.19.59 1.61 1.61 0 0 0-.89.95l-2.23 6.65a2.56 2.56 0 0 1-1 1.49 5.83 5.83 0 0 1-1.75.86 12.8 12.8 0 0 1-2 .18 15.54 15.54 0 0 1-1.83-.14h-.84c-.47 0-.85.17-1.11 0s-.41-.32-.41-.83a.54.54 0 0 1 .11-.37 1.64 1.64 0 0 1 .23-.28c.08-.1.17-.19.23-.28a.67.67 0 0 0 .1-.39.26.26 0 0 0 0-.11.82.82 0 0 1 0-.18A22.53 22.53 0 0 0 152 144c-1.09.64-2.21 1.33-3.32 2l-3.3 2.15a37.52 37.52 0 0 1-3.33 2 3.14 3.14 0 0 1-.85.44 12.41 12.41 0 0 0-1.15.58 4.7 4.7 0 0 0-1 .77 1.45 1.45 0 0 0-.43 1 2.63 2.63 0 0 0 0 .33v.23c.56.49 1.15 1 1.77 1.6s1.25 1.15 1.92 1.71 1.33 1.1 2 1.59a15.52 15.52 0 0 0 2.08 1.23 8.7 8.7 0 0 0 1.79.67c.62.18 1.26.34 1.91.52s1.27.4 1.87.64a7 7 0 0 1 1.66.91 7.93 7.93 0 0 1 1.33 1.39l1.09 1.49c.35.49.73 1 1.12 1.44a5.8 5.8 0 0 0 1.46 1.26 6.28 6.28 0 0 0 1.65.6 15.13 15.13 0 0 1 2 .63 6.36 6.36 0 0 1 1.77 1 2.1 2.1 0 0 1 .76 1.69.91.91 0 0 1-.07.28 1.65 1.65 0 0 0-.05.23l-5.55 1.13a3.49 3.49 0 0 0-1.09.38 2.34 2.34 0 0 1-1.14.26h-.28a1.69 1.69 0 0 0-.28 0c-.18-.11-.56-.33-1.12-.62l-1.72-1-1.67-1a6.36 6.36 0 0 1-1-.74s-.1-.08-.2-.21l-.31-.49-.34-.54c-.1-.18-.2-.33-.25-.45l-2.23-4.46c-.23-.08-.61-.22-1.13-.44s-1.13-.46-1.79-.74-1.36-.59-2.11-.91-1.44-.66-2.12-.95-1.26-.58-1.77-.82-.86-.45-1.09-.59a24.65 24.65 0 0 1-2.76-1.56 16.42 16.42 0 0 1-2.59-2.12 12.81 12.81 0 0 1-2-2.65 8 8 0 0 1-1-3.1l-.56.23a2.61 2.61 0 0 0-.59.33 7.09 7.09 0 0 1-.85.64c-.46.33-1 .72-1.69 1.16s-1.36.92-2.1 1.39l-2.1 1.35c-.67.41-1.24.77-1.74 1.06a8.9 8.9 0 0 1-.93.53q-3.34 2-5.92 3.49a22.93 22.93 0 0 0-4.49 3.38 17.09 17.09 0 0 0-3.58 4.39c-.87 1.69-.71 3.87-2.35 6.54v.62a4.34 4.34 0 0 0 0 .51v.43a9.74 9.74 0 0 0 1.14 4.39 7.77 7.77 0 0 0 2.1 2.54 8.26 8.26 0 0 0 2.6 1.39c.9.32 1.78.63 2.54 1a5.86 5.86 0 0 1 1.94.95 5.09 5.09 0 0 1 .79 2h-13.06s-.08-.24-.18-.39-.23-.12-.36-.2a4.77 4.77 0 0 0-.49-.15 2.79 2.79 0 0 1-.61-.32 2.93 2.93 0 0 1-1.25-1.52 8.29 8.29 0 0 1-.45-2.13 15 15 0 0 1 .19-2.31c0-.77.28-1.44.28-2v-1.44a7 7 0 0 1 .26-1.74c.22-.8.33-1.68.58-2.67s.46-2 .76-3.11.54-2.13.79-3.12.48-1.87.66-2.64l.42-1.73a13.44 13.44 0 0 1 .65-2 12.61 12.61 0 0 1 1-1.87 14.25 14.25 0 0 0 4.46-2.54 27.32 27.32 0 0 0 3.21-3.25c1-1.13 1.93-2.26 2.87-3.39a15.12 15.12 0 0 1 3.39-3 6.78 6.78 0 0 1 1.43-.7l2-.79c.75-.3 1.51-.62 2.29-.95a15.85 15.85 0 0 0 2.14-1.12 7.92 7.92 0 0 0 1.55-1.31 2.29 2.29 0 0 0 .61-1.54v-1.31a1.83 1.83 0 0 0-.62-1.2 6.3 6.3 0 0 1-.75-.28c-.37-.14-.76-.32-1.18-.52l-1.17-.56c-.38-.16-.62-.28-.77-.33a9.9 9.9 0 0 1-2-1.19l-2.61-1.87c-.9-.66-1.74-1-2.53-1.54a3.15 3.15 0 0 0-1.72-.56h-7.78c-5.92 0-11.74-.1-17.48.1s-11.55.2-17.47.2c-4.34 0-8.59-.15-12.72-.36a107 107 0 0 1-12.24-1.36 85.14 85.14 0 0 1-11.89-2.89 69.23 69.23 0 0 1-11.65-5l-1.41-.71a13 13 0 0 1-1.57-1 6 6 0 0 1-1.28-1.28 2.54 2.54 0 0 1-.53-1.56 6.87 6.87 0 0 1 2.08.39c.79.28 1.59.58 2.38.92s1.51.66 2.16 1 1.15.51 1.5.62c1.42.56 3 1.12 4.6 1.64s3.31 1 5 1.43 3.39.73 5.07 1a32.53 32.53 0 0 0 4.8.34h25a8.61 8.61 0 0 0 1.21-.11l2.53-.34c1-.14 2.11-.31 3.32-.52l3.59-.6c1.2-.2 2.33-.39 3.4-.61s2-.41 2.64-.57l6.82-1.52c2.41-.46 4.84-1 7.28-1.59s4.84-1.29 7.18-2.08a47.23 47.23 0 0 0 6.54-2.77l3.78-1.76c1.23-.58 2.47-1.12 3.75-1.59s2.58-.94 3.9-1.31a32.27 32.27 0 0 1 4.17-.91 9.45 9.45 0 0 1 1-.11l1.77-.11 1.75-.15a5.33 5.33 0 0 0 1-.18 16.57 16.57 0 0 0 1.87-.33l3.31-.72 4-.9c1.41-.33 2.76-.63 4-.9s2.35-.91 3.28-1.11 1.56-.71 1.87-.71h6.47c2.69 0 5.31.47 7.85.7s5.12.51 7.76.51a9.87 9.87 0 0 0 5-1.24 18.19 18.19 0 0 0 4.46-3.46 33 33 0 0 0 3.85-4.91 63 63 0 0 0 3.21-5.6c1-1.88 1.82-3.73 2.53-5.52s1.29-3.37 1.75-4.75c.43-1.18.79-2.32 1.12-3.42s.65-2.15 1-3.1a15.44 15.44 0 0 1 1.2-2.59 7.15 7.15 0 0 1 1.75-2 8 8 0 0 1 2.59-1.59 12.4 12.4 0 0 1 3.75-.77h3c.75 1.63 1.73.9 2.95 1.29a36.18 36.18 0 0 1 3.5 1.51 15 15 0 0 1 3 1.8 2.79 2.79 0 0 1 1.22 2.16 2 2 0 0 1-.44 1.39 3 3 0 0 1-1.13.87z"/></symbol><symbol id="velociraptor" viewBox="0 0 252 252"><path d="M126.17.5a125.67 125.67 0 1 0 125.66 125.67A125.66 125.66 0 0 0 126.17.5zm108.66 114.67a39.49 39.49 0 0 1-4.06 0c-1.33 0-2.4-.08-3.22-.08-3 0-6-.15-9-.45s-6-.62-9-1-6-.65-9-1-6-.44-9.08-.44a132.71 132.71 0 0 0-16.1 1 72.26 72.26 0 0 0-15.64 3.8l-30.18 10.9a2.43 2.43 0 0 0-1.2 1.54 20.07 20.07 0 0 0-.8 2.71c-.23 1-.43 1.91-.62 2.82a7 7 0 0 1-.61 1.93 3 3 0 0 0 1.36 1.31 20.26 20.26 0 0 0 2.41 1.15c.9.38 1.85.75 2.85 1.16a17.72 17.72 0 0 1 2.74 1.43 8.47 8.47 0 0 1 2.07 1.85 3.8 3.8 0 0 1 .8 2.43 1.61 1.61 0 0 1-.48 1.19 4.82 4.82 0 0 1-1.19.87 12.94 12.94 0 0 1-1.59.72 9.82 9.82 0 0 0-1.59.79 5 5 0 0 0-1.22 1 2.35 2.35 0 0 0-.47 1.49 3.65 3.65 0 0 0 .79 2.51 7.56 7.56 0 0 0 1.9 1.56c.73.46 1.52.88 2.34 1.31a7.21 7.21 0 0 1 2.13 1.71 16.89 16.89 0 0 1 2 3.41 22.31 22.31 0 0 1 1.26 3.63 35.17 35.17 0 0 1 .76 3.81c.18 1.29.1 2.6.25 3.9l1.3 1.29v7.08a3.78 3.78 0 0 1 .85 0c.28 0 .7.1 1 .18l1 .22a1.39 1.39 0 0 1 .55.23c0 .44.08.72.08.83a7.3 7.3 0 0 1-.1 1 7.14 7.14 0 0 1-.36 1.23 3.09 3.09 0 0 1-.62.93 1 1 0 0 1-.87.3h-5.13c-.19 0-.51-.51-1-.81s-.95-.54-1.48-.85-1-.45-1.54-.77-.88-.85-1.14-.85h-6.09a4.67 4.67 0 0 1 .64-2.91 4.29 4.29 0 0 1 1.63-1.54 7 7 0 0 1 2.09-.64c.74-.1 1.45-.21 2.1-.35a4.83 4.83 0 0 0 1.65-.7 1.45 1.45 0 0 0 .64-1.34 2.13 2.13 0 0 0 0-.33v-.3c-.18-.41-.46-1-.84-1.75s-.78-1.56-1.26-2.4a27.57 27.57 0 0 0-1.51-2.44 9.39 9.39 0 0 0-1.54-1.79 7.52 7.52 0 0 0-1.28-.78c-.59-.3-1.21-.61-1.83-.94a17.39 17.39 0 0 1-1.74-1.05 2.1 2.1 0 0 1-1-1.08 22.73 22.73 0 0 1-.92-2.9 22 22 0 0 0-1.06-3.18 7.87 7.87 0 0 0-1.71-2.56 3.88 3.88 0 0 0-2.85-1 22.93 22.93 0 0 0-6 .79 26 26 0 0 0-5.65 2.21 25.64 25.64 0 0 0-4.94 3.43 22.27 22.27 0 0 0-3.88 4.52.42.42 0 0 1-.35.18h-.16a.15.15 0 0 1-.11-.15c-.07 0-.14-.15-.2-.33s-.1-.39-.16-.62-.12-.43-.17-.61a.72.72 0 0 0-.15-.33.7.7 0 0 0-.27-.06 1.39 1.39 0 0 0-1 .47 6.66 6.66 0 0 0-.87 1.15l-.82 1.31a3.53 3.53 0 0 1-.84 1 4.45 4.45 0 0 1-.64-1.63 14.55 14.55 0 0 1-.08-1.62 10.36 10.36 0 0 1 .39-2.87c.27-.92.56-1.83.89-2.77s.64-1.56.9-2.52a19.63 19.63 0 0 0 .39-2.74h-4.8c0-1.64.21-1.79.64-2.34a5.76 5.76 0 0 1 1.53-1.63 6.91 6.91 0 0 1 2.1-.9 9.78 9.78 0 0 1 2.1-.29 21.11 21.11 0 0 1 3 .19c1 .17 1.95.3 2.9.47s1.9.32 2.85.45a21.25 21.25 0 0 0 2.89.2h2.28a2.57 2.57 0 0 0-1.67-1.35 15.1 15.1 0 0 0-2.51-.44l-2.66-.19c-.88-.05-1.59.14-2.16-.2l-3.87-2.2h-.28a13.69 13.69 0 0 0-3.13 0 12.89 12.89 0 0 1-3.12.17 7.32 7.32 0 0 1-3-.69 26.87 26.87 0 0 1-2.61-1.36c-.84-.48-1.75-1-2.59-1.34a5.1 5.1 0 0 0-2.85-.61v6a12.32 12.32 0 0 0 1.57-.15 5.47 5.47 0 0 0 1-.33 5.72 5.72 0 0 0 .88-.5c.31-.2.37-.41.87-.64.12-.07.6-.13.6-.17v2.74l2-.67c0 .11.19.28.21.51s.12.37.12.49A5.5 5.5 0 0 1 88.4 152a21.87 21.87 0 0 1-3.23 2.87 22.5 22.5 0 0 0-4.54-1.24c-1.5-.25-3.09-.46-4.73-.66v-7.7c0 .08-1 .24-1.72.52a17.09 17.09 0 0 0-2 1 12.1 12.1 0 0 0-1.89 1.18c-.46.41-.93.81-.93 1.17v6.82a10.25 10.25 0 0 0 2.94-.28 12 12 0 0 0 1.81-.59 12.75 12.75 0 0 0 1.22-.59 2.59 2.59 0 0 1 1.2-.28h.15a.71.71 0 0 0 .2 0c0 .11.14.34.28.72s.3.78.46 1.23.28.88.38 1.27a3.91 3.91 0 0 1 .18 1 5.11 5.11 0 0 1-.39 1.88 6.8 6.8 0 0 1-1.07 1.79 5.54 5.54 0 0 1-1.54 1.32 3.27 3.27 0 0 1-1.8.55 3.37 3.37 0 0 1-.57-.07h-.45c-.73-.15-1.72-.31-3-.47a29.77 29.77 0 0 1-3.6-.71 11.55 11.55 0 0 1-3.21-1.23 2.5 2.5 0 0 1-1.43-2.06v-11.63c0-.11.38-.38.88-.82s1.15-1 1.86-1.59 1.51-1.34 2.35-2.15a27.45 27.45 0 0 0 2.35-2.5 20.79 20.79 0 0 0 1.79-2.63 5.34 5.34 0 0 0 .73-2.55 3.79 3.79 0 0 0-1.08-2.74 11.91 11.91 0 0 0-2.77-2 24.3 24.3 0 0 0-3.23-1.41c-1.08-.36-1.92-.66-2.51-.89l-1.3-9q-.21-1.22-.6-2.67a11.57 11.57 0 0 0-1.1-2.72 7.21 7.21 0 0 0-1.78-2.14 4 4 0 0 0-2.63-.87 12.4 12.4 0 0 0-3.59.47 15.38 15.38 0 0 0-3.18 1.48c-.32.23-.86.56-1.62 1s-1.57.93-2.51 1.47-1.9 1.12-2.93 1.74l-2.93 1.72c-.94.54-1.78 1.21-2.51 1.64s-1.3 1.1-1.63 1.1h-1c-.45 0-1-.2-1.7-.23a14.21 14.21 0 0 1-2.05-.37 3.5 3.5 0 0 1-1.36-.75c-.46-.31-.34-.8-.34-1.36v-1.85c0-.59-.22-.9.05-.92h1.54a1.09 1.09 0 0 1 0-.43c.07-.25.09-.51.15-.8s.13-.59.18-.86a.92.92 0 0 0 0-.49 2.49 2.49 0 0 0-.79-.82l-.87-.49a2.39 2.39 0 0 1-.69-.65 2 2 0 0 1-.28-1.23 3.26 3.26 0 0 1 .24-1.17 5.19 5.19 0 0 1 .68-1.15c.27-.36.24-.63.6-.86a3.14 3.14 0 0 1 .81-.33v.77c0 .49.41 1 .55 1.46a1.17 1.17 0 0 0 1.19.72 1.61 1.61 0 0 0 1.09-.48 5.36 5.36 0 0 0 .94-1.11 10 10 0 0 0 .63-1.62c.15-.44.25.27.25-1.36H20.94a1.88 1.88 0 0 1-.85-.47c-.36-.26-.71-.39-1-.67a6.46 6.46 0 0 1-.91-.79 1.44 1.44 0 0 1-.39-1 4.44 4.44 0 0 1 1.07-3.15 7.4 7.4 0 0 1 2.57-1.78 17.24 17.24 0 0 1 3.15-1 20.84 20.84 0 0 0 2.82-.82c.41-.15 1.14-.46 2.18-.91s2.16-1 3.32-1.55 2.28-1 3.3-1.56a9.87 9.87 0 0 1 2.16-1.06h13.43a7.35 7.35 0 0 1 3.82 1 13.11 13.11 0 0 1 3.08 2.49 27.32 27.32 0 0 1 2.51 3.3c.77 1.16 1.52 2.25 2.26 3.25a15.91 15.91 0 0 0 2.25 2.53 3.63 3.63 0 0 0 2.45 1 .8.8 0 0 0 .77-.4.89.89 0 0 1 .84-.39 3.87 3.87 0 0 1 1.49.31c.49.2 1 .44 1.51.71s1 .49 1.51.68a3.73 3.73 0 0 0 1.54.32c1.38 0 2.74-.07 4.06-.2s2.69-.28 4.05-.44 2.72-.33 4.07-.48a36.29 36.29 0 0 1 4.06-.23 64.29 64.29 0 0 1 7.21.39 39 39 0 0 1 7.15 1.56c1.64.56 3.3 1.21 5 2s3.36 1.46 5 2.15a46.12 46.12 0 0 0 5.17 1.73 21 21 0 0 0 5.37.69h1.25s1-.06 1.31-.06c4.25-.92 8.49-1.82 12.72-2.67s8.46-1.63 12.67-2.27 8.49-1.14 12.77-1.54 8.6-.55 13-.55H184c1.79 0 3.61 0 5.44.11a39.77 39.77 0 0 1 5 .92l36 7.16H242c-.78 0-1.82 1-3.1 1.35a17.79 17.79 0 0 1-4.07.14z"/></symbol></svg>