<svg xmlns="http://www.w3.org/2000/svg" viewBox="0 0 252 252" width="252" height="252"><path d="M130.32 149c-.28 0-.41.2-.41.59a.11.11 0 0 0-.08 0 .43.43 0 0 0-.48.49c0 .39.16.59.48.59s.41-.2.41-.59 0 0 .08 0c.34 0 .51-.16.51-.49s-.17-.59-.51-.59zm1.44-.75a2.33 2.33 0 0 0-.85.79h.29a2.22 2.22 0 0 0 1.1-.33 2.32 2.32 0 0 0 .84-.77h-.3a2.12 2.12 0 0 0-1.08.31zm3.02-2.54c-.28 0-.41.18-.41.54a.3.3 0 0 0-.13 0c-.28 0-.43.18-.43.56a.22.22 0 0 0-.12 0c-.31 0-.47.2-.47.59s.16.54.47.54.46-.18.46-.54 0 0 .09 0c.31 0 .45-.2.45-.59s.05 0 .09 0c.34 0 .5-.18.5-.56s-.16-.54-.5-.54zm22.96-5.85a14.16 14.16 0 0 1-1.26 1.4 1.81 1.81 0 0 0 .8 1 3 3 0 0 0 1.13.18 2.12 2.12 0 0 0 1.38-.47 4.75 4.75 0 0 0 1.05-1.21 10 10 0 0 0 .75-1.45c.22-.51.38-1.16.49-1.16h-3.37c-.2.04-.51 1.11-.97 1.71z"/><path d="M125.83.5A125.67 125.67 0 1 0 251.5 126.17 125.66 125.66 0 0 0 125.83.5zm94.23 74.55a5.19 5.19 0 0 1-1.54.38 15.25 15.25 0 0 1-1.64.08h-1.08l-.93.07a42.33 42.33 0 0 0-5.15 1.23 16 16 0 0 0-3.61 1.57 9.34 9.34 0 0 0-2.46 2.15 13.73 13.73 0 0 0-1.73 2.9 36 36 0 0 0-1.48 3.85c-.47 1.46-1 3.12-1.64 5-.39 1.18-.79 2.31-1.18 3.4s-.8 2.13-1.24 3.14-.91 2-1.43 3.1-1.1 2.1-1.74 3.2a33 33 0 0 1-2.64 4q-1.4 1.84-2.91 3.62l-3.07 3.53a60.013 60.013 0 0 0-3.08 3.78 10.21 10.21 0 0 0-1.36 2.64c-.3.87-.61 1.72-1 2.53a8.45 8.45 0 0 1-1.33 2.18 5.51 5.51 0 0 1-2.46 1.57 8.17 8.17 0 0 1-1.33.56l-2 .67-2 .62c-.64.2-1.08.33-1.35.38a2.92 2.92 0 0 1 .17 2 2 2 0 0 1-.86.92 13.18 13.18 0 0 1-1.19.59 1.61 1.61 0 0 0-.89.95l-2.23 6.65a2.56 2.56 0 0 1-1 1.49 5.83 5.83 0 0 1-1.75.86 12.8 12.8 0 0 1-2 .18 15.54 15.54 0 0 1-1.83-.14h-.84c-.47 0-.85.17-1.11 0s-.41-.32-.41-.83a.54.54 0 0 1 .11-.37 1.64 1.64 0 0 1 .23-.28c.08-.1.17-.19.23-.28a.67.67 0 0 0 .1-.39.26.26 0 0 0 0-.11.82.82 0 0 1 0-.18A22.53 22.53 0 0 0 152 144c-1.09.64-2.21 1.33-3.32 2l-3.3 2.15a37.52 37.52 0 0 1-3.33 2 3.14 3.14 0 0 1-.85.44 12.41 12.41 0 0 0-1.15.58 4.7 4.7 0 0 0-1 .77 1.45 1.45 0 0 0-.43 1 2.63 2.63 0 0 0 0 .33v.23c.56.49 1.15 1 1.77 1.6s1.25 1.15 1.92 1.71 1.33 1.1 2 1.59a15.52 15.52 0 0 0 2.08 1.23 8.7 8.7 0 0 0 1.79.67c.62.18 1.26.34 1.91.52s1.27.4 1.87.64a7 7 0 0 1 1.66.91 7.93 7.93 0 0 1 1.33 1.39l1.09 1.49c.35.49.73 1 1.12 1.44a5.8 5.8 0 0 0 1.46 1.26 6.28 6.28 0 0 0 1.65.6 15.13 15.13 0 0 1 2 .63 6.36 6.36 0 0 1 1.77 1 2.1 2.1 0 0 1 .76 1.69.91.91 0 0 1-.07.28 1.65 1.65 0 0 0-.05.23l-5.55 1.13a3.49 3.49 0 0 0-1.09.38 2.34 2.34 0 0 1-1.14.26h-.28a1.69 1.69 0 0 0-.28 0c-.18-.11-.56-.33-1.12-.62l-1.72-1-1.67-1a6.36 6.36 0 0 1-1-.74s-.1-.08-.2-.21l-.31-.49-.34-.54c-.1-.18-.2-.33-.25-.45l-2.23-4.46c-.23-.08-.61-.22-1.13-.44s-1.13-.46-1.79-.74-1.36-.59-2.11-.91-1.44-.66-2.12-.95-1.26-.58-1.77-.82-.86-.45-1.09-.59a24.65 24.65 0 0 1-2.76-1.56 16.42 16.42 0 0 1-2.59-2.12 12.81 12.81 0 0 1-2-2.65 8 8 0 0 1-1-3.1l-.56.23a2.61 2.61 0 0 0-.59.33 7.09 7.09 0 0 1-.85.64c-.46.33-1 .72-1.69 1.16s-1.36.92-2.1 1.39l-2.1 1.35c-.67.41-1.24.77-1.74 1.06a8.9 8.9 0 0 1-.93.53q-3.34 2-5.92 3.49a22.93 22.93 0 0 0-4.49 3.38 17.09 17.09 0 0 0-3.58 4.39c-.87 1.69-.71 3.87-2.35 6.54v.62a4.34 4.34 0 0 0 0 .51v.43a9.74 9.74 0 0 0 1.14 4.39 7.77 7.77 0 0 0 2.1 2.54 8.26 8.26 0 0 0 2.6 1.39c.9.32 1.78.63 2.54 1a5.86 5.86 0 0 1 1.94.95 5.09 5.09 0 0 1 .79 2h-13.06s-.08-.24-.18-.39-.23-.12-.36-.2a4.77 4.77 0 0 0-.49-.15 2.79 2.79 0 0 1-.61-.32 2.93 2.93 0 0 1-1.25-1.52 8.29 8.29 0 0 1-.45-2.13 15 15 0 0 1 .19-2.31c0-.77.28-1.44.28-2v-1.44a7 7 0 0 1 .26-1.74c.22-.8.33-1.68.58-2.67s.46-2 .76-3.11.54-2.13.79-3.12.48-1.87.66-2.64l.42-1.73a13.44 13.44 0 0 1 .65-2 12.61 12.61 0 0 1 1-1.87 14.25 14.25 0 0 0 4.46-2.54 27.32 27.32 0 0 0 3.21-3.25c1-1.13 1.93-2.26 2.87-3.39a15.12 15.12 0 0 1 3.39-3 6.78 6.78 0 0 1 1.43-.7l2-.79c.75-.3 1.51-.62 2.29-.95a15.85 15.85 0 0 0 2.14-1.12 7.92 7.92 0 0 0 1.55-1.31 2.29 2.29 0 0 0 .61-1.54v-1.31a1.83 1.83 0 0 0-.62-1.2 6.3 6.3 0 0 1-.75-.28c-.37-.14-.76-.32-1.18-.52l-1.17-.56c-.38-.16-.62-.28-.77-.33a9.9 9.9 0 0 1-2-1.19l-2.61-1.87c-.9-.66-1.74-1-2.53-1.54a3.15 3.15 0 0 0-1.72-.56h-7.78c-5.92 0-11.74-.1-17.48.1s-11.55.2-17.47.2c-4.34 0-8.59-.15-12.72-.36a107 107 0 0 1-12.24-1.36 85.14 85.14 0 0 1-11.89-2.89 69.23 69.23 0 0 1-11.65-5l-1.41-.71a13 13 0 0 1-1.57-1 6 6 0 0 1-1.28-1.28 2.54 2.54 0 0 1-.53-1.56 6.87 6.87 0 0 1 2.08.39c.79.28 1.59.58 2.38.92s1.51.66 2.16 1 1.15.51 1.5.62c1.42.56 3 1.12 4.6 1.64s3.31 1 5 1.43 3.39.73 5.07 1a32.53 32.53 0 0 0 4.8.34h25a8.61 8.61 0 0 0 1.21-.11l2.53-.34c1-.14 2.11-.31 3.32-.52l3.59-.6c1.2-.2 2.33-.39 3.4-.61s2-.41 2.64-.57l6.82-1.52c2.41-.46 4.84-1 7.28-1.59s4.84-1.29 7.18-2.08a47.23 47.23 0 0 0 6.54-2.77l3.78-1.76c1.23-.58 2.47-1.12 3.75-1.59s2.58-.94 3.9-1.31a32.27 32.27 0 0 1 4.17-.91 9.45 9.45 0 0 1 1-.11l1.77-.11 1.75-.15a5.33 5.33 0 0 0 1-.18 16.57 16.57 0 0 0 1.87-.33l3.31-.72 4-.9c1.41-.33 2.76-.63 4-.9s2.35-.91 3.28-1.11 1.56-.71 1.87-.71h6.47c2.69 0 5.31.47 7.85.7s5.12.51 7.76.51a9.87 9.87 0 0 0 5-1.24 18.19 18.19 0 0 0 4.46-3.46 33 33 0 0 0 3.85-4.91 63 63 0 0 0 3.21-5.6c1-1.88 1.82-3.73 2.53-5.52s1.29-3.37 1.75-4.75c.43-1.18.79-2.32 1.12-3.42s.65-2.15 1-3.1a15.44 15.44 0 0 1 1.2-2.59 7.15 7.15 0 0 1 1.75-2 8 8 0 0 1 2.59-1.59 12.4 12.4 0 0 1 3.75-.77h3c.75 1.63 1.73.9 2.95 1.29a36.18 36.18 0 0 1 3.5 1.51 15 15 0 0 1 3 1.8 2.79 2.79 0 0 1 1.22 2.16 2 2 0 0 1-.44 1.39 3 3 0 0 1-1.13.87z"/></svg>