<svg xmlns="http://www.w3.org/2000/svg" viewBox="0 0 252 252" width="252" height="252"><path d="M126.17.5a125.67 125.67 0 1 0 125.66 125.67A125.66 125.66 0 0 0 126.17.5zm108.66 114.67a39.49 39.49 0 0 1-4.06 0c-1.33 0-2.4-.08-3.22-.08-3 0-6-.15-9-.45s-6-.62-9-1-6-.65-9-1-6-.44-9.08-.44a132.71 132.71 0 0 0-16.1 1 72.26 72.26 0 0 0-15.64 3.8l-30.18 10.9a2.43 2.43 0 0 0-1.2 1.54 20.07 20.07 0 0 0-.8 2.71c-.23 1-.43 1.91-.62 2.82a7 7 0 0 1-.61 1.93 3 3 0 0 0 1.36 1.31 20.26 20.26 0 0 0 2.41 1.15c.9.38 1.85.75 2.85 1.16a17.72 17.72 0 0 1 2.74 1.43 8.47 8.47 0 0 1 2.07 1.85 3.8 3.8 0 0 1 .8 2.43 1.61 1.61 0 0 1-.48 1.19 4.82 4.82 0 0 1-1.19.87 12.94 12.94 0 0 1-1.59.72 9.82 9.82 0 0 0-1.59.79 5 5 0 0 0-1.22 1 2.35 2.35 0 0 0-.47 1.49 3.65 3.65 0 0 0 .79 2.51 7.56 7.56 0 0 0 1.9 1.56c.73.46 1.52.88 2.34 1.31a7.21 7.21 0 0 1 2.13 1.71 16.89 16.89 0 0 1 2 3.41 22.31 22.31 0 0 1 1.26 3.63 35.17 35.17 0 0 1 .76 3.81c.18 1.29.1 2.6.25 3.9l1.3 1.29v7.08a3.78 3.78 0 0 1 .85 0c.28 0 .7.1 1 .18l1 .22a1.39 1.39 0 0 1 .55.23c0 .44.08.72.08.83a7.3 7.3 0 0 1-.1 1 7.14 7.14 0 0 1-.36 1.23 3.09 3.09 0 0 1-.62.93 1 1 0 0 1-.87.3h-5.13c-.19 0-.51-.51-1-.81s-.95-.54-1.48-.85-1-.45-1.54-.77-.88-.85-1.14-.85h-6.09a4.67 4.67 0 0 1 .64-2.91 4.29 4.29 0 0 1 1.63-1.54 7 7 0 0 1 2.09-.64c.74-.1 1.45-.21 2.1-.35a4.83 4.83 0 0 0 1.65-.7 1.45 1.45 0 0 0 .64-1.34 2.13 2.13 0 0 0 0-.33v-.3c-.18-.41-.46-1-.84-1.75s-.78-1.56-1.26-2.4a27.57 27.57 0 0 0-1.51-2.44 9.39 9.39 0 0 0-1.54-1.79 7.52 7.52 0 0 0-1.28-.78c-.59-.3-1.21-.61-1.83-.94a17.39 17.39 0 0 1-1.74-1.05 2.1 2.1 0 0 1-1-1.08 22.73 22.73 0 0 1-.92-2.9 22 22 0 0 0-1.06-3.18 7.87 7.87 0 0 0-1.71-2.56 3.88 3.88 0 0 0-2.85-1 22.93 22.93 0 0 0-6 .79 26 26 0 0 0-5.65 2.21 25.64 25.64 0 0 0-4.94 3.43 22.27 22.27 0 0 0-3.88 4.52.42.42 0 0 1-.35.18h-.16a.15.15 0 0 1-.11-.15c-.07 0-.14-.15-.2-.33s-.1-.39-.16-.62-.12-.43-.17-.61a.72.72 0 0 0-.15-.33.7.7 0 0 0-.27-.06 1.39 1.39 0 0 0-1 .47 6.66 6.66 0 0 0-.87 1.15l-.82 1.31a3.53 3.53 0 0 1-.84 1 4.45 4.45 0 0 1-.64-1.63 14.55 14.55 0 0 1-.08-1.62 10.36 10.36 0 0 1 .39-2.87c.27-.92.56-1.83.89-2.77s.64-1.56.9-2.52a19.63 19.63 0 0 0 .39-2.74h-4.8c0-1.64.21-1.79.64-2.34a5.76 5.76 0 0 1 1.53-1.63 6.91 6.91 0 0 1 2.1-.9 9.78 9.78 0 0 1 2.1-.29 21.11 21.11 0 0 1 3 .19c1 .17 1.95.3 2.9.47s1.9.32 2.85.45a21.25 21.25 0 0 0 2.89.2h2.28a2.57 2.57 0 0 0-1.67-1.35 15.1 15.1 0 0 0-2.51-.44l-2.66-.19c-.88-.05-1.59.14-2.16-.2l-3.87-2.2h-.28a13.69 13.69 0 0 0-3.13 0 12.89 12.89 0 0 1-3.12.17 7.32 7.32 0 0 1-3-.69 26.87 26.87 0 0 1-2.61-1.36c-.84-.48-1.75-1-2.59-1.34a5.1 5.1 0 0 0-2.85-.61v6a12.32 12.32 0 0 0 1.57-.15 5.47 5.47 0 0 0 1-.33 5.72 5.72 0 0 0 .88-.5c.31-.2.37-.41.87-.64.12-.07.6-.13.6-.17v2.74l2-.67c0 .11.19.28.21.51s.12.37.12.49A5.5 5.5 0 0 1 88.4 152a21.87 21.87 0 0 1-3.23 2.87 22.5 22.5 0 0 0-4.54-1.24c-1.5-.25-3.09-.46-4.73-.66v-7.7c0 .08-1 .24-1.72.52a17.09 17.09 0 0 0-2 1 12.1 12.1 0 0 0-1.89 1.18c-.46.41-.93.81-.93 1.17v6.82a10.25 10.25 0 0 0 2.94-.28 12 12 0 0 0 1.81-.59 12.75 12.75 0 0 0 1.22-.59 2.59 2.59 0 0 1 1.2-.28h.15a.71.71 0 0 0 .2 0c0 .11.14.34.28.72s.3.78.46 1.23.28.88.38 1.27a3.91 3.91 0 0 1 .18 1 5.11 5.11 0 0 1-.39 1.88 6.8 6.8 0 0 1-1.07 1.79 5.54 5.54 0 0 1-1.54 1.32 3.27 3.27 0 0 1-1.8.55 3.37 3.37 0 0 1-.57-.07h-.45c-.73-.15-1.72-.31-3-.47a29.77 29.77 0 0 1-3.6-.71 11.55 11.55 0 0 1-3.21-1.23 2.5 2.5 0 0 1-1.43-2.06v-11.63c0-.11.38-.38.88-.82s1.15-1 1.86-1.59 1.51-1.34 2.35-2.15a27.45 27.45 0 0 0 2.35-2.5 20.79 20.79 0 0 0 1.79-2.63 5.34 5.34 0 0 0 .73-2.55 3.79 3.79 0 0 0-1.08-2.74 11.91 11.91 0 0 0-2.77-2 24.3 24.3 0 0 0-3.23-1.41c-1.08-.36-1.92-.66-2.51-.89l-1.3-9q-.21-1.22-.6-2.67a11.57 11.57 0 0 0-1.1-2.72 7.21 7.21 0 0 0-1.78-2.14 4 4 0 0 0-2.63-.87 12.4 12.4 0 0 0-3.59.47 15.38 15.38 0 0 0-3.18 1.48c-.32.23-.86.56-1.62 1s-1.57.93-2.51 1.47-1.9 1.12-2.93 1.74l-2.93 1.72c-.94.54-1.78 1.21-2.51 1.64s-1.3 1.1-1.63 1.1h-1c-.45 0-1-.2-1.7-.23a14.21 14.21 0 0 1-2.05-.37 3.5 3.5 0 0 1-1.36-.75c-.46-.31-.34-.8-.34-1.36v-1.85c0-.59-.22-.9.05-.92h1.54a1.09 1.09 0 0 1 0-.43c.07-.25.09-.51.15-.8s.13-.59.18-.86a.92.92 0 0 0 0-.49 2.49 2.49 0 0 0-.79-.82l-.87-.49a2.39 2.39 0 0 1-.69-.65 2 2 0 0 1-.28-1.23 3.26 3.26 0 0 1 .24-1.17 5.19 5.19 0 0 1 .68-1.15c.27-.36.24-.63.6-.86a3.14 3.14 0 0 1 .81-.33v.77c0 .49.41 1 .55 1.46a1.17 1.17 0 0 0 1.19.72 1.61 1.61 0 0 0 1.09-.48 5.36 5.36 0 0 0 .94-1.11 10 10 0 0 0 .63-1.62c.15-.44.25.27.25-1.36H20.94a1.88 1.88 0 0 1-.85-.47c-.36-.26-.71-.39-1-.67a6.46 6.46 0 0 1-.91-.79 1.44 1.44 0 0 1-.39-1 4.44 4.44 0 0 1 1.07-3.15 7.4 7.4 0 0 1 2.57-1.78 17.24 17.24 0 0 1 3.15-1 20.84 20.84 0 0 0 2.82-.82c.41-.15 1.14-.46 2.18-.91s2.16-1 3.32-1.55 2.28-1 3.3-1.56a9.87 9.87 0 0 1 2.16-1.06h13.43a7.35 7.35 0 0 1 3.82 1 13.11 13.11 0 0 1 3.08 2.49 27.32 27.32 0 0 1 2.51 3.3c.77 1.16 1.52 2.25 2.26 3.25a15.91 15.91 0 0 0 2.25 2.53 3.63 3.63 0 0 0 2.45 1 .8.8 0 0 0 .77-.4.89.89 0 0 1 .84-.39 3.87 3.87 0 0 1 1.49.31c.49.2 1 .44 1.51.71s1 .49 1.51.68a3.73 3.73 0 0 0 1.54.32c1.38 0 2.74-.07 4.06-.2s2.69-.28 4.05-.44 2.72-.33 4.07-.48a36.29 36.29 0 0 1 4.06-.23 64.29 64.29 0 0 1 7.21.39 39 39 0 0 1 7.15 1.56c1.64.56 3.3 1.21 5 2s3.36 1.46 5 2.15a46.12 46.12 0 0 0 5.17 1.73 21 21 0 0 0 5.37.69h1.25s1-.06 1.31-.06c4.25-.92 8.49-1.82 12.72-2.67s8.46-1.63 12.67-2.27 8.49-1.14 12.77-1.54 8.6-.55 13-.55H184c1.79 0 3.61 0 5.44.11a39.77 39.77 0 0 1 5 .92l36 7.16H242c-.78 0-1.82 1-3.1 1.35a17.79 17.79 0 0 1-4.07.14z"/></svg>